<svg width="116" height="48" viewBox="0 0 116 48" fill="none" xmlns="http://www.w3.org/2000/svg">
<path d="M44.911 26.7209C44.911 26.931 44.911 27.1621 44.8774 27.3954C44.8438 27.6286 44.827 27.8681 44.7955 28.116H34.0529C34.178 28.5058 34.3539 28.8773 34.5761 29.2211C34.7988 29.567 35.0779 29.873 35.4018 30.1267C35.7348 30.3872 36.1081 30.5916 36.5069 30.7318C36.9445 30.8799 37.4044 30.951 37.8663 30.9419C38.4839 30.9394 39.0968 30.8336 39.6795 30.6288C40.2338 30.4503 40.7478 30.1648 41.1922 29.7884L43.3079 31.9042C42.4849 32.5418 41.562 33.0387 40.5766 33.3749C39.663 33.6612 38.7102 33.803 37.7528 33.7951C35.8449 33.8076 34.0098 33.0634 32.6494 31.7256C32.0003 31.084 31.4829 30.3218 31.1262 29.4817C30.7574 28.6102 30.5674 27.6735 30.5674 26.7272C30.5674 25.7809 30.7574 24.8443 31.1262 23.9728C31.4844 23.131 32.0057 22.3683 32.6599 21.7289C33.3188 21.0868 34.092 20.5738 34.9396 20.2162C35.8217 19.8416 36.7714 19.6521 37.7297 19.6594C38.6654 19.6556 39.593 19.8332 40.461 20.1825C41.3112 20.5198 42.0913 21.0121 42.7617 21.6343C43.4566 22.2812 44.0081 23.0666 44.3805 23.9399C44.7529 24.8132 44.9379 25.7549 44.9236 26.7041L44.911 26.7209ZM41.4002 25.4225C41.1618 24.6051 40.6695 23.8847 39.9946 23.3656C39.3416 22.8538 38.5341 22.579 37.7045 22.5861C36.8852 22.5794 36.0885 22.8546 35.448 23.3656C34.7787 23.8879 34.2907 24.6075 34.0529 25.4225H41.4002Z" fill="#0057FF"/>
<path d="M50.1664 14.165H46.748V33.465H50.1664V14.165Z" fill="#0057FF"/>
<path d="M75.1806 26.7439C75.1896 27.706 74.9993 28.6596 74.6218 29.5446C74.2643 30.3837 73.7428 31.143 73.088 31.778C71.7177 33.0897 69.892 33.8187 67.9951 33.8118C66.1022 33.8213 64.2813 33.0863 62.9254 31.7654C62.2561 31.1122 61.7251 30.331 61.3642 29.4683C61.0032 28.6056 60.8196 27.6791 60.8243 26.7439C60.8185 25.7957 61.0132 24.857 61.3958 23.9895C61.7627 23.1461 62.2868 22.3803 62.9401 21.733C63.5956 21.0873 64.3696 20.5744 65.2197 20.2223C66.0958 19.8558 67.037 19.6699 67.9867 19.6761C68.953 19.6674 69.9112 19.8532 70.8042 20.2223C71.6543 20.5698 72.4313 21.0744 73.0943 21.7099C73.7507 22.3475 74.2723 23.1106 74.6281 23.9538C75.001 24.8363 75.189 25.7859 75.1806 26.7439ZM71.8316 26.7439C71.8357 26.1945 71.7337 25.6495 71.5312 25.1387C71.3387 24.6584 71.0595 24.2175 70.7076 23.8382C70.3647 23.4688 69.951 23.1723 69.4911 22.9663C69.0238 22.7585 68.5181 22.6512 68.0067 22.6512C67.4953 22.6512 66.9896 22.7585 66.5223 22.9663C66.0624 23.1723 65.6487 23.4688 65.3058 23.8382C64.9539 24.2175 64.6747 24.6584 64.4822 25.1387C64.0816 26.1713 64.0816 27.3165 64.4822 28.3491C64.6747 28.8294 64.9539 29.2703 65.3058 29.6496C65.6492 30.0184 66.0628 30.3149 66.5223 30.5216C66.9896 30.7293 67.4953 30.8367 68.0067 30.8367C68.5181 30.8367 69.0238 30.7293 69.4911 30.5216C69.9506 30.3149 70.3642 30.0184 70.7076 29.6496C71.0595 29.2703 71.3387 28.8294 71.5312 28.3491C71.7339 27.8384 71.8359 27.2933 71.8316 26.7439Z" fill="#0057FF"/>
<path d="M28.7312 26.7439V14.165H25.3359V21.0417L28.7312 26.7439Z" fill="#0057FF"/>
<path d="M28.7294 26.744C28.7389 27.706 28.5494 28.6595 28.1726 29.5447C27.8151 30.3844 27.2929 31.1438 26.6367 31.7781C25.2669 33.0893 23.4421 33.8183 21.546 33.8119C19.653 33.8214 17.8321 33.0865 16.4762 31.7655C15.8069 31.1123 15.2759 30.3311 14.915 29.4684C14.554 28.6057 14.3704 27.6792 14.3752 26.744C14.3686 25.796 14.5627 24.8573 14.9445 23.9896C15.3121 23.1461 15.8369 22.3803 16.4909 21.7331C17.1464 21.0874 17.9204 20.5745 18.7705 20.2224C19.6466 19.8559 20.5878 19.67 21.5376 19.6762C23.4337 19.6698 25.2585 20.3988 26.6283 21.71C27.2889 22.3456 27.8141 23.1081 28.1726 23.9518C28.5473 24.8346 28.7368 25.785 28.7294 26.744ZM25.3824 26.744C25.3868 26.1944 25.2841 25.6492 25.0799 25.1388C24.889 24.6582 24.6104 24.2172 24.2584 23.8383C23.9152 23.4684 23.5007 23.1718 23.0398 22.9664C22.5729 22.7585 22.0675 22.6511 21.5565 22.6511C21.0454 22.6511 20.54 22.7585 20.0731 22.9664C19.6129 23.1718 19.1991 23.4684 18.8566 23.8383C18.5039 24.2171 18.2247 24.6581 18.033 25.1388C17.6324 26.1715 17.6324 27.3166 18.033 28.3492C18.2247 28.83 18.5039 29.271 18.8566 29.6497C19.1996 30.0189 19.6133 30.3155 20.0731 30.5217C20.54 30.7295 21.0454 30.8369 21.5565 30.8369C22.0675 30.8369 22.5729 30.7295 23.0398 30.5217C23.5002 30.3155 23.9146 30.019 24.2584 29.6497C24.6104 29.2708 24.889 28.8299 25.0799 28.3492C25.2843 27.8389 25.3871 27.2937 25.3824 26.744Z" fill="#0057FF"/>
<path d="M86.6404 29.6958C86.6517 30.3206 86.4903 30.9364 86.1739 31.4753C85.8663 31.9903 85.4532 32.4342 84.9617 32.778C84.4494 33.1332 83.8813 33.4003 83.2808 33.568C82.6829 33.7429 82.0633 33.8327 81.4403 33.8348C80.4668 33.8456 79.5019 33.6516 78.6082 33.2654C77.71 32.8569 76.9289 32.2291 76.337 31.4396L78.3602 29.3953C78.7391 29.8852 79.2138 30.2926 79.7553 30.5929C80.2766 30.8741 80.8607 31.0187 81.4529 31.0131C81.9082 31.0293 82.36 30.9296 82.7661 30.7232C82.9278 30.6434 83.0631 30.5188 83.1559 30.3641C83.2486 30.2095 83.2949 30.0315 83.2892 29.8512C83.2892 29.4479 83.0413 29.1117 82.5455 28.8386C81.8743 28.5007 81.1703 28.2325 80.4445 28.0381C79.9168 27.883 79.4031 27.6841 78.9086 27.4435C78.4276 27.2139 77.9819 26.9167 77.585 26.561C77.2044 26.2218 76.889 25.816 76.6542 25.3635C76.4137 24.8804 76.294 24.3461 76.3054 23.8066C76.2961 23.191 76.4528 22.5842 76.7593 22.0501C77.0577 21.5357 77.4633 21.0915 77.9484 20.7475C78.4614 20.3939 79.0294 20.1277 79.6293 19.9596C80.2427 19.7758 80.8797 19.6823 81.5202 19.6823C82.4808 19.6588 83.434 19.8561 84.3064 20.259C85.1788 20.6619 85.9471 21.2595 86.5521 22.006L84.5541 24.0293C84.1882 23.5692 83.7384 23.1828 83.2283 22.8906C82.7316 22.6106 82.1702 22.4657 81.6 22.4704C81.3876 22.473 81.1761 22.4998 80.9697 22.5502C80.7509 22.602 80.5392 22.6803 80.3394 22.7834C80.1533 22.8783 79.9904 23.0132 79.8625 23.1784C79.7413 23.3346 79.6761 23.527 79.6776 23.7247C79.6776 24.0818 79.9136 24.3921 80.3856 24.6554C81.0344 24.9884 81.716 25.2531 82.4194 25.4454C82.9813 25.6113 83.5264 25.8294 84.0477 26.0967C84.535 26.3434 84.9884 26.652 85.3966 27.0149C85.7735 27.3503 86.0848 27.7528 86.3147 28.2019C86.5404 28.667 86.652 29.179 86.6404 29.6958Z" fill="#0057FF"/>
<path d="M99.4333 17.6759C98.9708 17.6759 98.5273 17.4922 98.2002 17.1652C97.8732 16.8381 97.6895 16.3946 97.6895 15.9321C97.6892 15.703 97.7341 15.4761 97.8216 15.2644C97.9092 15.0527 98.0376 14.8604 98.1996 14.6984C98.3616 14.5364 98.5539 14.408 98.7656 14.3204C98.9773 14.2329 99.2042 14.188 99.4333 14.1882C99.8958 14.1882 100.339 14.372 100.666 14.699C100.993 15.026 101.177 15.4696 101.177 15.9321C101.177 16.3944 100.993 16.8376 100.666 17.1646C100.339 17.4915 99.8956 17.6754 99.4333 17.6759ZM101.131 33.463H97.7357V20.0018H101.131V33.463Z" fill="#0057FF"/>
<path d="M52.1934 21.6699C52.1917 20.6839 52.3847 19.7072 52.7613 18.796C53.1378 17.8847 53.6906 17.0567 54.3878 16.3595C55.085 15.6622 55.913 15.1095 56.8243 14.7329C57.7356 14.3564 58.7122 14.1634 59.6982 14.165V17.3817C58.7486 17.382 57.8258 17.697 57.0742 18.2775C56.3227 18.858 55.7847 19.6712 55.5445 20.59H59.6982V23.8046H55.41V33.4546H52.1934V21.6699Z" fill="#0057FF"/>
<path d="M91.6366 21.6699V25.9581C91.6358 26.5219 91.7461 27.0802 91.9612 27.6014C92.1763 28.1225 92.492 28.5961 92.8902 28.9951C93.2885 29.3941 93.7615 29.7108 94.2822 29.9269C94.8029 30.143 95.361 30.2544 95.9248 30.2547V33.4714C94.9386 33.4736 93.9617 33.281 93.0502 32.9046C92.1387 32.5282 91.3105 31.9755 90.6131 31.2782C89.9158 30.5808 89.3631 29.7526 88.9867 28.8411C88.6103 27.9296 88.4177 26.9527 88.4199 25.9665V14.165H91.6366V18.4532H95.9248V21.6699H91.6366Z" fill="#0057FF"/>
</svg>
