<svg width="281" height="64" viewBox="0 0 281 64" fill="none" xmlns="http://www.w3.org/2000/svg">
<path d="M99.4827 40.5015C99.4827 41.1792 99.4827 41.9247 99.3742 42.677C99.2658 43.4293 99.2116 44.2019 99.1099 45.0017H64.4573C64.8609 46.2589 65.4283 47.4575 66.1449 48.5665C66.8635 49.6821 67.7637 50.6694 68.8084 51.4876C69.8825 52.328 71.0866 52.9873 72.3732 53.4395C73.7847 53.9174 75.2683 54.1467 76.7582 54.1172C78.7505 54.1093 80.7274 53.768 82.6071 53.1074C84.3953 52.5316 86.0531 51.6105 87.4867 50.3964L94.3115 57.2212C91.6567 59.2781 88.6796 60.8811 85.501 61.9654C82.5539 62.8889 79.4805 63.3463 76.3922 63.3208C70.2377 63.3612 64.3181 60.9607 59.93 56.6451C57.8361 54.5757 56.167 52.1168 55.0164 49.4069C53.8268 46.5958 53.2139 43.5743 53.2139 40.5218C53.2139 37.4693 53.8268 34.4479 55.0164 31.6367C56.1719 28.9212 57.8534 26.4612 59.9639 24.3985C62.0891 22.3274 64.5832 20.6724 67.3173 19.5188C70.1629 18.3106 73.2263 17.6993 76.3177 17.7228C79.336 17.7106 82.3281 18.2836 85.1282 19.4104C87.8706 20.4984 90.387 22.0864 92.5494 24.0935C94.7911 26.18 96.5701 28.7136 97.7713 31.5306C98.9726 34.3475 99.5695 37.3852 99.5233 40.4473L99.4827 40.5015ZM88.1577 36.3131C87.3885 33.6764 85.8006 31.3527 83.6237 29.6781C81.5171 28.0273 78.9125 27.1408 76.2363 27.1637C73.5935 27.1421 71.0235 28.0299 68.9575 29.6781C66.7985 31.3629 65.2242 33.6841 64.4573 36.3131H88.1577Z" fill="white"/>
<path d="M116.433 0H105.406V62.2567H116.433V0Z" fill="white"/>
<path d="M197.124 40.5761C197.153 43.6796 196.539 46.7555 195.321 49.6103C194.168 52.3171 192.486 54.7664 190.374 56.8146C185.953 61.0458 180.064 63.3975 173.945 63.3751C167.839 63.406 161.966 61.0351 157.592 56.7739C155.433 54.6671 153.72 52.1471 152.556 49.3643C151.391 46.5814 150.799 43.5926 150.814 40.5761C150.795 37.5175 151.424 34.4895 152.658 31.691C153.841 28.9705 155.532 26.5002 157.639 24.4121C159.754 22.3294 162.251 20.6748 164.993 19.5392C167.819 18.3567 170.855 17.7573 173.918 17.7771C177.035 17.7492 180.126 18.3484 183.007 19.5392C185.749 20.6599 188.255 22.2878 190.394 24.3375C192.512 26.3945 194.194 28.8559 195.342 31.5757C196.544 34.4226 197.151 37.4857 197.124 40.5761ZM186.321 40.5761C186.334 38.8038 186.005 37.0457 185.352 35.3982C184.731 33.8487 183.83 32.4266 182.695 31.203C181.589 30.0115 180.255 29.0549 178.771 28.3904C177.264 27.7202 175.632 27.3739 173.983 27.3739C172.333 27.3739 170.702 27.7202 169.195 28.3904C167.711 29.0549 166.376 30.0115 165.27 31.203C164.135 32.4266 163.235 33.8487 162.614 35.3982C161.321 38.7291 161.321 42.423 162.614 45.754C163.235 47.3034 164.135 48.7255 165.27 49.9491C166.378 51.1387 167.712 52.095 169.195 52.7617C170.702 53.4319 172.333 53.7782 173.983 53.7782C175.632 53.7782 177.264 53.4319 178.771 52.7617C180.253 52.095 181.587 51.1387 182.695 49.9491C183.83 48.7255 184.731 47.3034 185.352 45.754C186.006 44.1066 186.335 42.3484 186.321 40.5761Z" fill="white"/>
<path d="M47.2901 40.576V0H36.3379V22.1823L47.2901 40.576Z" fill="white"/>
<path d="M47.2834 40.5761C47.3143 43.6791 46.7028 46.755 45.4874 49.6103C44.3343 52.3189 42.6496 54.7686 40.5331 56.8146C36.1145 61.0442 30.2282 63.3958 24.1116 63.3751C18.0053 63.406 12.1316 61.0351 7.75785 56.774C5.59888 54.6671 3.88618 52.1471 2.72181 49.3643C1.55744 46.5815 0.965235 43.5927 0.980495 40.5761C0.959427 37.518 1.58534 34.4901 2.81716 31.691C4.00297 28.9702 5.6958 26.4999 7.80529 24.4121C9.91974 22.3294 12.4166 20.6748 15.1587 19.5392C17.9849 18.3567 21.0209 17.7573 24.0845 17.7771C30.2011 17.7564 36.0874 20.108 40.506 24.3376C42.6367 26.3878 44.3311 28.8475 45.4874 31.569C46.696 34.4169 47.3072 37.4825 47.2834 40.5761ZM36.487 40.5761C36.5013 38.8031 36.1698 37.0443 35.5111 35.3982C34.8953 33.8477 33.9967 32.4252 32.8612 31.203C31.7541 30.0098 30.417 29.053 28.9303 28.3904C27.4242 27.72 25.794 27.3735 24.1455 27.3735C22.4969 27.3735 20.8668 27.72 19.3607 28.3904C17.876 29.0531 16.5411 30.0099 15.4366 31.203C14.2989 32.4248 13.398 33.8474 12.7799 35.3982C11.4874 38.7291 11.4874 42.423 12.7799 45.754C13.398 47.3048 14.2989 48.7274 15.4366 49.9492C16.543 51.1401 17.8774 52.0966 19.3607 52.7618C20.8668 53.4322 22.4969 53.7787 24.1455 53.7787C25.794 53.7787 27.4242 53.4322 28.9303 52.7618C30.4156 52.0968 31.7523 51.1403 32.8612 49.9492C33.9967 48.727 34.8953 47.3044 35.5111 45.754C36.1705 44.108 36.502 42.3491 36.487 40.5761Z" fill="white"/>
<path d="M234.087 50.0982C234.124 52.1137 233.603 54.1002 232.583 55.8386C231.59 57.4996 230.258 58.9316 228.672 60.0405C227.02 61.1865 225.187 62.0479 223.25 62.5888C221.322 63.1531 219.323 63.4429 217.313 63.4495C214.173 63.4843 211.06 62.8586 208.177 61.6129C205.28 60.2952 202.761 58.2699 200.851 55.7234L207.378 49.129C208.6 50.7091 210.131 52.0235 211.878 52.9921C213.56 53.8991 215.443 54.3655 217.354 54.3476C218.822 54.3998 220.28 54.078 221.59 53.4123C222.111 53.1549 222.548 52.7529 222.847 52.2541C223.146 51.7554 223.296 51.181 223.277 50.5997C223.277 49.2984 222.478 48.214 220.878 47.333C218.713 46.2432 216.442 45.378 214.101 44.7508C212.399 44.2506 210.742 43.609 209.147 42.8328C207.595 42.0922 206.157 41.1337 204.877 39.9863C203.649 38.8922 202.632 37.583 201.875 36.1233C201.099 34.565 200.713 32.8416 200.749 31.1012C200.719 29.1154 201.225 27.1581 202.213 25.4354C203.176 23.776 204.484 22.343 206.049 21.2334C207.704 20.0929 209.536 19.2341 211.471 18.6919C213.45 18.0988 215.505 17.7975 217.571 17.7973C220.67 17.7216 223.744 18.358 226.558 19.6576C229.373 20.9571 231.851 22.8851 233.803 25.293L227.357 31.8196C226.177 30.3354 224.726 29.0889 223.081 28.1463C221.479 27.2433 219.668 26.776 217.828 26.7908C217.143 26.7995 216.461 26.8859 215.795 27.0484C215.089 27.2155 214.407 27.4682 213.762 27.8007C213.162 28.1069 212.636 28.542 212.224 29.0748C211.833 29.5786 211.622 30.1992 211.627 30.8369C211.627 31.9891 212.388 32.9899 213.911 33.8393C216.004 34.9134 218.202 35.7674 220.472 36.3876C222.284 36.9228 224.042 37.6262 225.724 38.4886C227.296 39.2843 228.758 40.2798 230.075 41.4503C231.291 42.5322 232.295 43.8307 233.037 45.2795C233.765 46.7795 234.125 48.4313 234.087 50.0982Z" fill="white"/>
<path d="M275.355 11.3251C273.863 11.3251 272.432 10.7325 271.377 9.67753C270.322 8.6226 269.729 7.19181 269.729 5.69991C269.729 4.96095 269.873 4.22907 270.156 3.54619C270.438 2.8633 270.853 2.24283 271.375 1.7203C271.898 1.19778 272.518 0.783465 273.201 0.501088C273.884 0.218711 274.616 0.0738192 275.355 0.0747111C276.847 0.0747111 278.277 0.667365 279.332 1.7223C280.387 2.77723 280.98 4.20802 280.98 5.69991C280.978 7.19126 280.385 8.62101 279.33 9.67555C278.276 10.7301 276.846 11.3233 275.355 11.3251ZM280.831 62.2501H269.879V18.8276H280.831V62.2501Z" fill="white"/>
<path d="M122.973 24.2087C122.967 21.0281 123.59 17.8777 124.805 14.9381C126.019 11.9986 127.802 9.32771 130.051 7.07866C132.3 4.8296 134.971 3.04661 137.911 1.8319C140.85 0.617199 144.001 -0.00532185 147.181 3.42707e-05V10.3762C144.118 10.377 141.141 11.3931 138.717 13.2656C136.293 15.1382 134.557 17.7615 133.783 20.7252H147.181V31.0945H133.349V62.2229H122.973V24.2087Z" fill="white"/>
<path d="M250.204 24.2087V38.0413C250.202 39.8598 250.557 41.6611 251.251 43.342C251.945 45.023 252.964 46.5508 254.248 47.8379C255.533 49.1251 257.059 50.1465 258.738 50.8436C260.418 51.5408 262.218 51.9001 264.037 51.901V62.2771C260.856 62.2842 257.705 61.6629 254.764 60.4489C251.824 59.2348 249.152 57.4519 246.903 55.2025C244.653 52.953 242.87 50.2815 241.656 47.3411C240.442 44.4007 239.821 41.2495 239.828 38.0684V0H250.204V13.8326H264.037V24.2087H250.204Z" fill="white"/>
</svg>
